<svg xmlns="http://www.w3.org/2000/svg" width="256" height="256" viewBox="0 0 100 100">
  <defs/>
  <rect width="100" height="100" fill="#e76e70" rx="0"/>
  <path fill="#fff" d="M20.45 35.79l5.64 20.7 5.67-20.7h7.65l-9.57 28.44h-7.5l-9.49-28.44h7.6zm38.67 11.29v5.1H48.34v6.78h12.73v5.27H41.48V35.79h19.63v5.29H48.34v6h10.78zm28.03 1.95v11.68q-1.58 1.76-4.63 2.83-3.05 1.08-6.68 1.08-5.59 0-8.93-3.42t-3.57-9.51l-.02-2.46q0-4.2 1.48-7.34 1.49-3.13 4.25-4.82 2.77-1.69 6.4-1.69 5.31 0 8.25 2.43 2.94 2.43 3.43 7.26h-6.6q-.35-2.38-1.53-3.4-1.17-1.02-3.32-1.02-2.57 0-3.98 2.19-1.41 2.19-1.43 6.25v1.72q0 4.26 1.46 6.4 1.45 2.14 4.58 2.14 2.67 0 3.98-1.2v-4.41h-4.76v-4.71h11.62z"/>
</svg>
