<?xml version="1.0" standalone="no"?>
<!DOCTYPE svg>
<svg xmlns="http://www.w3.org/2000/svg"
     width="700.000000pt" height="700.000000pt" viewBox="0 0 700.000000 700.000000"
     preserveAspectRatio="xMidYMid meet">
<g transform="translate(0.000000,700.000000) scale(0.100000,-0.100000)"
fill="#000000" stroke="none">
<path d="M0 3500 l0 -3500 3500 0 3500 0 0 3500 0 3500 -3500 0 -3500 0 0
-3500z m5575 991 c295 -77 470 -280 519 -598 l6 -43 -230 0 c-176 0 -231 3
-234 13 -41 150 -76 206 -156 251 -49 28 -65 31 -158 34 -99 4 -105 3 -167
-27 -103 -51 -169 -147 -211 -306 -27 -102 -28 -514 -1 -627 36 -154 108 -256
216 -307 52 -24 66 -26 191 -26 119 0 141 3 185 23 87 40 85 35 85 209 l0 153
-165 0 -165 0 0 165 0 165 405 0 405 0 0 -414 0 -414 -57 -46 c-108 -86 -262
-153 -445 -193 -65 -14 -126 -18 -278 -17 -225 0 -292 13 -440 86 -70 35 -102
59 -180 138 -106 106 -148 170 -196 300 -101 267 -97 732 8 1000 99 255 308
435 573 494 104 23 381 16 490 -13z m-4131 -43 c9 -29 97 -352 196 -717 99
-366 182 -666 184 -669 6 -5 13 18 206 728 99 366 185 675 190 688 l10 22 258
0 c142 0 261 -3 264 -6 3 -3 -20 -80 -51 -172 -32 -92 -183 -539 -336 -995
l-278 -827 -261 2 -261 3 -332 990 c-182 545 -332 993 -332 998 -1 4 118 7
264 7 l264 0 15 -52z m2831 -138 l0 -185 -448 -3 -447 -2 2 -208 3 -207 378
-3 377 -2 0 -175 0 -175 -377 -2 -378 -3 0 -235 0 -235 443 -3 442 -2 0 -185
0 -185 -682 2 -683 3 -3 985 c-1 542 0 991 3 998 3 10 146 12 687 10 l683 -3
0 -185z"/>
</g>
</svg>
